<?xml version="1.0" encoding="UTF-8"?>
<svg enable-background="new 0 0 500 500" version="1.1" viewBox="0 0 500 500" xml:space="preserve" xmlns="http://www.w3.org/2000/svg">
	<polygon points="226.8 184.7 254.9 168.4 283.1 184.7 283.1 217.2 254.9 233.5 226.8 217.3" stroke="#000" stroke-miterlimit="10" stroke-width="2.1462"/>
	<g fill="#36A9E1" stroke="#000" stroke-miterlimit="10" stroke-width="2.1462">
		<path d="m283.1 184.7c-4.2-3.1-8.7-6.2-13.6-9s-9.8-5.2-14.6-7.3c-8-3.4-15.7-5.8-22.9-7-15.4-2.7-27.7-0.3-32.4 7.7 11-19.1 31.6-31.9 55.2-31.9 9.3 0 17.5 9.4 22.9 24.2 2.5 6.8 4.4 14.7 5.4 23.3z"/>
		<path d="m300.6 201c-4.7 5.5-10.6 11.1-17.5 16.3 0.6-5.2 1-10.6 1-16.3 0-5.6-0.3-11.1-1-16.3-1-8.6-2.9-16.5-5.3-23.3-5.3-14.7-13.6-24.2-22.9-24.2 23.6 0 44.2 12.8 55.2 31.9 4.7 8 0.6 19.9-9.5 31.9z"/>
		<path d="m318.7 201c0 11.6-3.1 22.5-8.5 31.9-4.6 8-16.9 10.4-32.4 7.7-7.1-1.3-14.9-3.6-22.9-7 4.8-2 9.7-4.5 14.6-7.3s9.4-5.8 13.6-9c6.9-5.2 12.9-10.8 17.5-16.3 10.1-12 14.1-23.9 9.5-31.9 5.5 9.4 8.6 20.3 8.6 31.9z"/>
		<path d="m310.2 232.9c-11 19.1-31.6 31.9-55.2 31.9-9.3 0-17.5-9.4-22.9-24.2-2.5-6.8-4.3-14.7-5.3-23.3 4.2 3.1 8.7 6.2 13.6 9s9.8 5.3 14.6 7.3c8 3.4 15.7 5.8 22.9 7 15.3 2.7 27.6 0.3 32.3-7.7z"/>
		<path d="m254.9 264.7c-23.6 0-44.2-12.8-55.2-31.9-4.6-8-0.6-19.9 9.5-31.9 4.7-5.5 10.6-11.1 17.5-16.3-0.6 5.2-1 10.6-1 16.3s0.3 11.1 1 16.3c1 8.6 2.9 16.5 5.3 23.3 5.4 14.8 13.7 24.2 22.9 24.2z"/>
		<path d="m254.9 168.4c-4.8 2-9.7 4.5-14.6 7.3s-9.4 5.8-13.6 9c-6.9 5.2-12.9 10.8-17.5 16.3-10.1 12-14.1 23.9-9.5 31.9-5.4-9.4-8.5-20.3-8.5-31.9s3.1-22.5 8.5-31.9c4.6-8 16.9-10.4 32.4-7.7 7.1 1.3 14.9 3.6 22.8 7z"/>
	</g>
		<path d="m419.7 253.3c-6.4-1.3-26.7-10.2-38.3-8-132.4 24.7-203.8 25.2-257.5-46.2-0.4-0.5 0.9 2.9 2.9 7.4 3.1 6.7 6.5 12 9.1 15.7 0 0-32.5 9.6-34.6 34.8 0 0 9.2-25.9 40.3-29.2 0 0 9.7 10.5 13.4 12.1 0 0-22.3 2.3-26 24.8 0 0 2.8-14.8 32.3-20.7 0 0 12 8.7 19 10.3 0 0-6.9-2.8-15.6 16.3 0 0 9-16.7 27.4-11.4 0 0 45.1 21.2 191-7.5 0 0 12.1-3.2 36.6 1.6z" stroke="#000" stroke-miterlimit="10" stroke-width="2.1462"/>
			<ellipse transform="matrix(-.7646 -.6446 .6446 -.7646 304.28 491.73)" cx="241.9" cy="190.3" rx="5.4" ry="8.9" fill="#fff" stroke="#000" stroke-miterlimit="10" stroke-width="2.1462"/>
			<path d="m412.6 202.8s-3.4-3.5-9.3-9.5c-1.5-1.5-3.2-3.1-5-4.8-0.9-0.9-1.9-1.8-2.8-2.8-1-0.9-2.1-1.9-3.2-2.9s-2.2-2-3.4-3-2.3-2.1-3.6-3.2c-2.5-2.1-5.1-4.4-7.9-6.6-2.9-2.2-5.8-4.5-8.9-6.9-1.6-1.1-3.2-2.3-4.8-3.5s-3.2-2.4-5-3.5c-3.4-2.3-6.9-4.7-10.6-6.8-1.8-1.1-3.7-2.2-5.6-3.4-1.9-1.1-3.9-2.2-5.8-3.2-1-0.5-1.9-1.1-3-1.6l-3-1.5c-2-1-4.1-2.1-6.1-3.1-4.2-1.9-8.4-3.9-12.8-5.6-4.3-1.9-8.8-3.4-13.2-5-4.5-1.4-9-3-13.7-4.1-4.6-1.4-9.2-2.4-13.8-3.5-2.3-0.5-4.7-0.9-7-1.4-1.2-0.2-2.3-0.4-3.5-0.6s-2.3-0.4-3.5-0.5c-9.3-1.4-18.5-2.4-27.4-2.7s-17.6-0.4-25.8 0.1c-1 0-2 0.1-3.1 0.1-1 0.1-2 0.2-3 0.2-2 0.2-4 0.3-5.9 0.5l-5.7 0.6c-0.9 0.1-1.9 0.2-2.8 0.3s-1.8 0.2-2.7 0.4c-1.8 0.2-3.5 0.5-5.2 0.7s-3.4 0.6-5 0.8c-1.6 0.3-3.2 0.5-4.7 0.8l-4.5 0.9c-2.9 0.5-5.6 1.2-8 1.7-1.2 0.3-2.4 0.5-3.6 0.8-1.1 0.3-2.2 0.5-3.2 0.8-2 0.5-3.9 1-5.5 1.4s-2.9 0.8-4 1.1c-2.2 0.6-3.4 0.9-3.4 0.9s1.1-0.4 3.2-1.2c1.1-0.4 2.4-0.9 3.9-1.5s3.3-1.2 5.3-1.9c1-0.3 2.1-0.7 3.2-1.1 1.1-0.3 2.3-0.7 3.5-1.1 2.4-0.8 5.1-1.6 8-2.3 1.4-0.4 2.9-0.8 4.4-1.2s3.1-0.7 4.7-1.1 3.3-0.8 5-1.1 3.5-0.7 5.3-1c0.9-0.2 1.8-0.3 2.7-0.5 0.9-0.1 1.8-0.3 2.8-0.4 1.9-0.3 3.8-0.6 5.7-0.9 2-0.2 3.9-0.5 6-0.7 1-0.1 2-0.2 3.1-0.4 1-0.1 2.1-0.2 3.1-0.3 8.3-0.8 17.2-1.2 26.4-1 9.2 0.1 18.6 0.8 28.2 2.2 1.2 0.2 2.4 0.4 3.6 0.5 1.2 0.2 2.4 0.4 3.6 0.6 2.4 0.4 4.8 0.9 7.2 1.3 4.8 1.1 9.6 2.1 14.3 3.5 4.7 1.2 9.4 2.9 14 4.4 4.6 1.7 9.2 3.3 13.6 5.3 4.5 1.8 8.8 3.9 13 6 2.1 1.1 4.2 2.2 6.2 3.3 1 0.5 2 1.1 3.1 1.6 1 0.6 2 1.2 3 1.7 2 1.2 3.9 2.3 5.9 3.5 1.9 1.2 3.8 2.4 5.6 3.6 3.7 2.4 7.2 5 10.6 7.4 1.7 1.2 3.3 2.5 4.9 3.7 1.6 1.3 3.2 2.5 4.7 3.7 3 2.5 5.9 5.1 8.6 7.4 2.7 2.4 5.2 4.9 7.6 7.2 1.2 1.1 2.3 2.3 3.4 3.4s2.2 2.2 3.2 3.3 2 2.1 3 3.1c0.9 1 1.8 2 2.7 3 1.7 1.9 3.2 3.7 4.6 5.3 2.7 3.2 4.8 5.9 6.2 7.6 1.1 1.7 1.9 2.7 1.9 2.7z"/>
		<path d="m121.4 188.6c-47.1-5-86.6-33.6-86.6-33.6 40.8 25.8 85.8 12.9 85.8 12.9-43.6-2.1-64-40.4-64-40.4 13.2 24 77.3 27.9 77.3 27.9-36.8-6.5-52.2-43.4-52.2-43.4 24 39.3 77.6 31.5 77.6 31.5-33.6-4.3-44.3-42.5-44.3-42.5 17.2 46.5 75.8 31.1 75.8 31.1-27.2-1.8-37.2-38.6-37.2-38.6 7.2 31.5 57.9 30 57.9 30 122-14.6 208.2 113.7 208.2 113.7-184.8-170.6-298.3-48.6-298.3-48.6" stroke="#000" stroke-miterlimit="10" stroke-width="2.1462"/>
</svg>
